<svg aria-hidden="true" style="position: absolute; width: 0; height: 0; overflow: hidden;" version="1.1" xmlns="http://www.w3.org/2000/svg" xmlns:xlink="http://www.w3.org/1999/xlink">
<defs>
<symbol id="icon-maps" viewBox="0 0 25 32">
<path d="M12.31 17.746c3.312-0.003 5.996-2.688 6-6v-0c-0.003-3.312-2.688-5.997-6-6h-0c-3.312 0.003-5.997 2.688-6 6v0c0.003 3.312 2.688 5.997 6 6h0zM12.31 6.746c2.76 0.003 4.997 2.24 4.999 5v0c-0.003 2.76-2.239 4.997-4.999 4.999h-0c-2.76-0.002-4.998-2.239-5.001-4.999v-0c0.002-2.761 2.24-4.999 5-5.001h0zM12.308 0c-0.009-0-0.019-0-0.030-0-6.611 0-11.97 5.359-11.97 11.97 0 0.010 0 0.021 0 0.031v-0.002c0 7.001 6.001 14.162 10.375 19.195 0.017 0.020 0.719 0.805 1.588 0.805h0.076c0.866 0 1.569-0.785 1.585-0.805 4.378-5.034 10.378-12.193 10.378-19.194 0-0.009 0-0.019 0-0.030 0-6.612-5.36-11.972-11.972-11.972-0.011 0-0.022 0-0.032 0h0.002zM12.425 29.883c-0.040 0.034-0.084 0.066-0.13 0.096l-0.005 0.003c-0.010-0.027-0.084-0.086-0.128-0.133-3.665-4.218-9.854-11.335-9.854-17.847 0-5.514 4.487-10.001 10-10.001 5.516 0 10.002 4.487 10.002 10.002 0 6.511-6.188 13.628-9.886 17.881z"></path>
</symbol>
<symbol id="icon-phone" viewBox="0 0 32 32">
<path d="M22 20c-2 2-2 4-4 4s-4-2-6-4-4-4-4-6 2-2 4-4-4-8-6-8-6 6-6 6c0 4 4.109 12.109 8 16s12 8 16 8c0 0 6-4 6-6s-6-8-8-6z"></path>
</symbol>
<symbol id="icon-clock" viewBox="0 0 32 32">
<path d="M20.586 23.414l-6.586-6.586v-8.828h4v7.172l5.414 5.414zM16 0c-8.837 0-16 7.163-16 16s7.163 16 16 16 16-7.163 16-16-7.163-16-16-16zM16 28c-6.627 0-12-5.373-12-12s5.373-12 12-12c6.627 0 12 5.373 12 12s-5.373 12-12 12z"></path>
</symbol>
<symbol id="icon-drawer2" viewBox="0 0 32 32">
<path d="M31.781 20.375l-8-10c-0.19-0.237-0.477-0.375-0.781-0.375h-14c-0.304 0-0.591 0.138-0.781 0.375l-8 10c-0.142 0.177-0.219 0.398-0.219 0.625v9c0 1.105 0.895 2 2 2h28c1.105 0 2-0.895 2-2v-9c0-0.227-0.077-0.447-0.219-0.625zM30 22h-7l-4 4h-6l-4-4h-7v-0.649l7.481-9.351h13.039l7.481 9.351v0.649z"></path>
</symbol>
</defs>
</svg>
